<?xml version="1.0" encoding="UTF-8"?>
<svg xmlns="http://www.w3.org/2000/svg" xmlns:xlink="http://www.w3.org/1999/xlink" width="250pt" height="250pt" viewBox="0 0 250 250" version="1.1">
<g id="surface21">
<path style=" stroke:none;fill-rule:nonzero;fill:rgb(100%,70.1%,72.9%);fill-opacity:1;" d="M 0 0 L 250 0 L 250 61.402344 L 0 61.402344 Z M 0 0 "/>
<path style=" stroke:none;fill-rule:nonzero;fill:rgb(100%,87.4%,72.9%);fill-opacity:1;" d="M 11.9375 61.402344 L 23.210938 61.402344 L 23.210938 70.175781 L 11.9375 70.175781 Z M 35.808594 61.402344 L 47.082031 61.402344 L 47.082031 70.175781 L 35.808594 70.175781 Z M 59.679688 61.402344 L 70.953125 61.402344 L 70.953125 70.175781 L 59.679688 70.175781 Z M 83.554688 61.402344 L 94.828125 61.402344 L 94.828125 70.175781 L 83.554688 70.175781 Z M 107.425781 61.402344 L 118.699219 61.402344 L 118.699219 70.175781 L 107.425781 70.175781 Z M 131.300781 61.402344 L 142.574219 61.402344 L 142.574219 70.175781 L 131.300781 70.175781 Z M 155.171875 61.402344 L 166.445312 61.402344 L 166.445312 70.175781 L 155.171875 70.175781 Z M 179.042969 61.402344 L 190.316406 61.402344 L 190.316406 70.175781 L 179.042969 70.175781 Z M 202.917969 61.402344 L 214.191406 61.402344 L 214.191406 70.175781 L 202.917969 70.175781 Z M 226.789062 61.402344 L 238.0625 61.402344 L 238.0625 70.175781 L 226.789062 70.175781 Z M 226.789062 61.402344 "/>
<path style=" stroke:none;fill-rule:nonzero;fill:rgb(100%,100%,72.9%);fill-opacity:1;" d="M 11.9375 70.175781 L 23.210938 70.175781 L 23.210938 179.824219 L 11.9375 179.824219 Z M 35.808594 70.175781 L 47.082031 70.175781 L 47.082031 179.824219 L 35.808594 179.824219 Z M 59.679688 70.175781 L 70.953125 70.175781 L 70.953125 179.824219 L 59.679688 179.824219 Z M 83.554688 70.175781 L 94.828125 70.175781 L 94.828125 179.824219 L 83.554688 179.824219 Z M 107.425781 70.175781 L 118.699219 70.175781 L 118.699219 179.824219 L 107.425781 179.824219 Z M 131.300781 70.175781 L 142.574219 70.175781 L 142.574219 179.824219 L 131.300781 179.824219 Z M 155.171875 70.175781 L 166.445312 70.175781 L 166.445312 179.824219 L 155.171875 179.824219 Z M 179.042969 70.175781 L 190.316406 70.175781 L 190.316406 179.824219 L 179.042969 179.824219 Z M 202.917969 70.175781 L 214.191406 70.175781 L 214.191406 179.824219 L 202.917969 179.824219 Z M 226.789062 70.175781 L 238.0625 70.175781 L 238.0625 179.824219 L 226.789062 179.824219 Z M 226.789062 70.175781 "/>
<path style=" stroke:none;fill-rule:nonzero;fill:rgb(72.9%,100%,78.8%);fill-opacity:1;" d="M 11.9375 179.824219 L 23.210938 179.824219 L 23.210938 188.597656 L 11.9375 188.597656 Z M 35.808594 179.824219 L 47.082031 179.824219 L 47.082031 188.597656 L 35.808594 188.597656 Z M 59.679688 179.824219 L 70.953125 179.824219 L 70.953125 188.597656 L 59.679688 188.597656 Z M 83.554688 179.824219 L 94.828125 179.824219 L 94.828125 188.597656 L 83.554688 188.597656 Z M 107.425781 179.824219 L 118.699219 179.824219 L 118.699219 188.597656 L 107.425781 188.597656 Z M 131.300781 179.824219 L 142.574219 179.824219 L 142.574219 188.597656 L 131.300781 188.597656 Z M 155.171875 179.824219 L 166.445312 179.824219 L 166.445312 188.597656 L 155.171875 188.597656 Z M 179.042969 179.824219 L 190.316406 179.824219 L 190.316406 188.597656 L 179.042969 188.597656 Z M 202.917969 179.824219 L 214.191406 179.824219 L 214.191406 188.597656 L 202.917969 188.597656 Z M 226.789062 179.824219 L 238.0625 179.824219 L 238.0625 188.597656 L 226.789062 188.597656 Z M 226.789062 179.824219 "/>
<path style=" stroke:none;fill-rule:nonzero;fill:rgb(72.9%,88.2%,100%);fill-opacity:1;" d="M 0 188.597656 L 250 188.597656 L 250 250 L 0 250 Z M 0 188.597656 "/>
</g>
</svg>
