<?xml version="1.0" encoding="UTF-8"?>
<svg xmlns="http://www.w3.org/2000/svg" xmlns:xlink="http://www.w3.org/1999/xlink" width="209pt" height="209pt" viewBox="0 0 209 209" version="1.1">
<g id="surface11">
<path style=" stroke:none;fill-rule:nonzero;fill:rgb(100%,70.1%,72.9%);fill-opacity:1;" d="M 2 2 L 102 2 L 102 9 L 2 9 Z M 2 2 "/>
<path style=" stroke:none;fill-rule:nonzero;fill:rgb(100%,87.4%,72.9%);fill-opacity:1;" d="M 2 9 L 102 9 L 102 109 L 2 109 Z M 2 9 "/>
<path style=" stroke:none;fill-rule:nonzero;fill:rgb(100%,100%,72.9%);fill-opacity:1;" d="M 2 109 L 102 109 L 102 116 L 2 116 Z M 2 109 "/>
<path style=" stroke:none;fill-rule:nonzero;fill:rgb(72.9%,100%,78.8%);fill-opacity:1;" d="M 2 116 L 102 116 L 102 146 L 2 146 Z M 2 116 "/>
<path style=" stroke:none;fill-rule:nonzero;fill:rgb(72.9%,88.2%,100%);fill-opacity:1;" d="M 2 146 L 102 146 L 102 161 L 2 161 Z M 2 146 "/>
<path style=" stroke:none;fill-rule:nonzero;fill:rgb(85.5%,72.9%,100%);fill-opacity:1;" d="M 2 161 L 102 161 L 102 211 L 2 211 Z M 2 161 "/>
</g>
</svg>
